<svg xmlns="http://www.w3.org/2000/svg" xmlns:rdkit="http://www.rdkit.org/xml" xmlns:xlink="http://www.w3.org/1999/xlink" version="1.1" baseProfile="full" xml:space="preserve" width="500px" height="300px" viewBox="0 0 500 300">
<!-- END OF HEADER -->
<rect style="opacity:1.0;fill:#FFFFFF;stroke:none" width="500.0" height="300.0" x="0.0" y="0.0"> </rect>
<path class="bond-0 atom-0 atom-1" d="M 114.2,241.1 L 90.3,204.6" style="fill:none;fill-rule:evenodd;stroke:#000000;stroke-width:2.0px;stroke-linecap:butt;stroke-linejoin:miter;stroke-opacity:1"/>
<path class="bond-1 atom-1 atom-2" d="M 90.3,204.6 L 70.1,244.5" style="fill:none;fill-rule:evenodd;stroke:#000000;stroke-width:2.0px;stroke-linecap:butt;stroke-linejoin:miter;stroke-opacity:1"/>
<path class="bond-2 atom-1 atom-3" d="M 90.3,204.6 L 47.5,182.8" style="fill:none;fill-rule:evenodd;stroke:#000000;stroke-width:2.0px;stroke-linecap:butt;stroke-linejoin:miter;stroke-opacity:1"/>
<path class="bond-3 atom-1 atom-4" d="M 90.3,204.6 L 141.6,171.3" style="fill:none;fill-rule:evenodd;stroke:#000000;stroke-width:2.0px;stroke-linecap:butt;stroke-linejoin:miter;stroke-opacity:1"/>
<path class="bond-4 atom-4 atom-5" d="M 146.3,173.7 L 145.0,149.3" style="fill:none;fill-rule:evenodd;stroke:#000000;stroke-width:2.0px;stroke-linecap:butt;stroke-linejoin:miter;stroke-opacity:1"/>
<path class="bond-4 atom-4 atom-5" d="M 145.0,149.3 L 143.8,125.0" style="fill:none;fill-rule:evenodd;stroke:#FF0000;stroke-width:2.0px;stroke-linecap:butt;stroke-linejoin:miter;stroke-opacity:1"/>
<path class="bond-4 atom-4 atom-5" d="M 137.2,174.2 L 135.9,149.8" style="fill:none;fill-rule:evenodd;stroke:#000000;stroke-width:2.0px;stroke-linecap:butt;stroke-linejoin:miter;stroke-opacity:1"/>
<path class="bond-4 atom-4 atom-5" d="M 135.9,149.8 L 134.6,125.5" style="fill:none;fill-rule:evenodd;stroke:#FF0000;stroke-width:2.0px;stroke-linecap:butt;stroke-linejoin:miter;stroke-opacity:1"/>
<path class="bond-5 atom-4 atom-6" d="M 141.6,171.3 L 163.1,182.2" style="fill:none;fill-rule:evenodd;stroke:#000000;stroke-width:2.0px;stroke-linecap:butt;stroke-linejoin:miter;stroke-opacity:1"/>
<path class="bond-5 atom-4 atom-6" d="M 163.1,182.2 L 184.6,193.2" style="fill:none;fill-rule:evenodd;stroke:#0000FF;stroke-width:2.0px;stroke-linecap:butt;stroke-linejoin:miter;stroke-opacity:1"/>
<path class="bond-6 atom-6 atom-7" d="M 197.4,214.4 L 198.2,230.1" style="fill:none;fill-rule:evenodd;stroke:#0000FF;stroke-width:2.0px;stroke-linecap:butt;stroke-linejoin:miter;stroke-opacity:1"/>
<path class="bond-6 atom-6 atom-7" d="M 198.2,230.1 L 199.1,245.8" style="fill:none;fill-rule:evenodd;stroke:#000000;stroke-width:2.0px;stroke-linecap:butt;stroke-linejoin:miter;stroke-opacity:1"/>
<path class="bond-7 atom-6 atom-8" d="M 208.5,191.3 L 228.0,178.2" style="fill:none;fill-rule:evenodd;stroke:#0000FF;stroke-width:2.0px;stroke-linecap:butt;stroke-linejoin:miter;stroke-opacity:1"/>
<path class="bond-7 atom-6 atom-8" d="M 228.0,178.2 L 247.5,165.1" style="fill:none;fill-rule:evenodd;stroke:#000000;stroke-width:2.0px;stroke-linecap:butt;stroke-linejoin:miter;stroke-opacity:1"/>
<path class="bond-8 atom-8 atom-9" d="M 245.0,162.7 L 245.7,162.2" style="fill:none;fill-rule:evenodd;stroke:#000000;stroke-width:1.0px;stroke-linecap:butt;stroke-linejoin:miter;stroke-opacity:1"/>
<path class="bond-8 atom-8 atom-9" d="M 242.5,160.4 L 243.8,159.3" style="fill:none;fill-rule:evenodd;stroke:#000000;stroke-width:1.0px;stroke-linecap:butt;stroke-linejoin:miter;stroke-opacity:1"/>
<path class="bond-8 atom-8 atom-9" d="M 240.0,158.0 L 241.9,156.4" style="fill:none;fill-rule:evenodd;stroke:#000000;stroke-width:1.0px;stroke-linecap:butt;stroke-linejoin:miter;stroke-opacity:1"/>
<path class="bond-8 atom-8 atom-9" d="M 237.5,155.6 L 240.1,153.5" style="fill:none;fill-rule:evenodd;stroke:#000000;stroke-width:1.0px;stroke-linecap:butt;stroke-linejoin:miter;stroke-opacity:1"/>
<path class="bond-8 atom-8 atom-9" d="M 235.0,153.2 L 238.2,150.6" style="fill:none;fill-rule:evenodd;stroke:#000000;stroke-width:1.0px;stroke-linecap:butt;stroke-linejoin:miter;stroke-opacity:1"/>
<path class="bond-8 atom-8 atom-9" d="M 232.5,150.9 L 236.3,147.7" style="fill:none;fill-rule:evenodd;stroke:#000000;stroke-width:1.0px;stroke-linecap:butt;stroke-linejoin:miter;stroke-opacity:1"/>
<path class="bond-8 atom-8 atom-9" d="M 230.0,148.5 L 234.4,144.8" style="fill:none;fill-rule:evenodd;stroke:#000000;stroke-width:1.0px;stroke-linecap:butt;stroke-linejoin:miter;stroke-opacity:1"/>
<path class="bond-8 atom-8 atom-9" d="M 227.5,146.1 L 232.6,141.9" style="fill:none;fill-rule:evenodd;stroke:#000000;stroke-width:1.0px;stroke-linecap:butt;stroke-linejoin:miter;stroke-opacity:1"/>
<path class="bond-8 atom-8 atom-9" d="M 225.0,143.7 L 230.7,139.0" style="fill:none;fill-rule:evenodd;stroke:#000000;stroke-width:1.0px;stroke-linecap:butt;stroke-linejoin:miter;stroke-opacity:1"/>
<path class="bond-8 atom-8 atom-9" d="M 222.4,141.4 L 228.8,136.1" style="fill:none;fill-rule:evenodd;stroke:#000000;stroke-width:1.0px;stroke-linecap:butt;stroke-linejoin:miter;stroke-opacity:1"/>
<path class="bond-8 atom-8 atom-9" d="M 219.9,139.0 L 227.0,133.2" style="fill:none;fill-rule:evenodd;stroke:#000000;stroke-width:1.0px;stroke-linecap:butt;stroke-linejoin:miter;stroke-opacity:1"/>
<path class="bond-9 atom-8 atom-10" d="M 247.5,165.1 L 275.4,100.0" style="fill:none;fill-rule:evenodd;stroke:#000000;stroke-width:2.0px;stroke-linecap:butt;stroke-linejoin:miter;stroke-opacity:1"/>
<path class="bond-10 atom-10 atom-11" d="M 275.4,100.0 L 234.7,76.6" style="fill:none;fill-rule:evenodd;stroke:#000000;stroke-width:2.0px;stroke-linecap:butt;stroke-linejoin:miter;stroke-opacity:1"/>
<path class="bond-11 atom-10 atom-12" d="M 275.4,100.0 L 272.8,53.7" style="fill:none;fill-rule:evenodd;stroke:#000000;stroke-width:2.0px;stroke-linecap:butt;stroke-linejoin:miter;stroke-opacity:1"/>
<path class="bond-12 atom-10 atom-13" d="M 275.4,100.0 L 316.9,94.6" style="fill:none;fill-rule:evenodd;stroke:#000000;stroke-width:2.0px;stroke-linecap:butt;stroke-linejoin:miter;stroke-opacity:1"/>
<path class="bond-13 atom-8 atom-14" d="M 247.5,165.1 L 307.9,199.6" style="fill:none;fill-rule:evenodd;stroke:#000000;stroke-width:2.0px;stroke-linecap:butt;stroke-linejoin:miter;stroke-opacity:1"/>
<path class="bond-14 atom-14 atom-15" d="M 303.4,197.0 L 302.9,221.2" style="fill:none;fill-rule:evenodd;stroke:#000000;stroke-width:2.0px;stroke-linecap:butt;stroke-linejoin:miter;stroke-opacity:1"/>
<path class="bond-14 atom-14 atom-15" d="M 302.9,221.2 L 302.5,245.5" style="fill:none;fill-rule:evenodd;stroke:#FF0000;stroke-width:2.0px;stroke-linecap:butt;stroke-linejoin:miter;stroke-opacity:1"/>
<path class="bond-14 atom-14 atom-15" d="M 312.6,197.3 L 312.1,221.5" style="fill:none;fill-rule:evenodd;stroke:#000000;stroke-width:2.0px;stroke-linecap:butt;stroke-linejoin:miter;stroke-opacity:1"/>
<path class="bond-14 atom-14 atom-15" d="M 312.1,221.5 L 311.6,245.7" style="fill:none;fill-rule:evenodd;stroke:#FF0000;stroke-width:2.0px;stroke-linecap:butt;stroke-linejoin:miter;stroke-opacity:1"/>
<path class="bond-15 atom-14 atom-16" d="M 307.9,199.6 L 330.0,188.5" style="fill:none;fill-rule:evenodd;stroke:#000000;stroke-width:2.0px;stroke-linecap:butt;stroke-linejoin:miter;stroke-opacity:1"/>
<path class="bond-15 atom-14 atom-16" d="M 330.0,188.5 L 352.1,177.4" style="fill:none;fill-rule:evenodd;stroke:#0000FF;stroke-width:2.0px;stroke-linecap:butt;stroke-linejoin:miter;stroke-opacity:1"/>
<path class="bond-16 atom-16 atom-17" d="M 364.8,156.3 L 365.3,148.5" style="fill:none;fill-rule:evenodd;stroke:#0000FF;stroke-width:2.0px;stroke-linecap:butt;stroke-linejoin:miter;stroke-opacity:1"/>
<path class="bond-16 atom-16 atom-17" d="M 365.3,148.5 L 365.7,140.6" style="fill:none;fill-rule:evenodd;stroke:#000000;stroke-width:2.0px;stroke-linecap:butt;stroke-linejoin:miter;stroke-opacity:1"/>
<path class="bond-17 atom-16 atom-18" d="M 376.0,177.2 L 395.4,186.6" style="fill:none;fill-rule:evenodd;stroke:#0000FF;stroke-width:2.0px;stroke-linecap:butt;stroke-linejoin:miter;stroke-opacity:1"/>
<path class="bond-17 atom-16 atom-18" d="M 395.4,186.6 L 414.9,196.0" style="fill:none;fill-rule:evenodd;stroke:#000000;stroke-width:2.0px;stroke-linecap:butt;stroke-linejoin:miter;stroke-opacity:1"/>
<path class="bond-18 atom-18 atom-19" d="M 414.9,196.0 L 396.4,235.0" style="fill:none;fill-rule:evenodd;stroke:#000000;stroke-width:2.0px;stroke-linecap:butt;stroke-linejoin:miter;stroke-opacity:1"/>
<path class="bond-19 atom-18 atom-20" d="M 414.9,196.0 L 439.3,228.7" style="fill:none;fill-rule:evenodd;stroke:#000000;stroke-width:2.0px;stroke-linecap:butt;stroke-linejoin:miter;stroke-opacity:1"/>
<path class="bond-20 atom-18 atom-21" d="M 414.9,196.0 L 452.5,167.2" style="fill:none;fill-rule:evenodd;stroke:#000000;stroke-width:2.0px;stroke-linecap:butt;stroke-linejoin:miter;stroke-opacity:1"/>
<path d="M 139.0,172.9 L 141.6,171.3 L 142.7,171.8" style="fill:none;stroke:#000000;stroke-width:2.0px;stroke-linecap:butt;stroke-linejoin:miter;stroke-opacity:1;"/>
<path d="M 304.9,197.8 L 307.9,199.6 L 309.1,199.0" style="fill:none;stroke:#000000;stroke-width:2.0px;stroke-linecap:butt;stroke-linejoin:miter;stroke-opacity:1;"/>
<path class="atom-0" d="M 113.8 243.1 L 117.4 243.1 L 117.4 254.2 L 130.8 254.2 L 130.8 243.1 L 134.4 243.1 L 134.4 269.3 L 130.8 269.3 L 130.8 257.2 L 117.4 257.2 L 117.4 269.3 L 113.8 269.3 L 113.8 243.1 " fill="#000000"/>
<path class="atom-2" d="M 52.2 246.5 L 55.8 246.5 L 55.8 257.6 L 69.2 257.6 L 69.2 246.5 L 72.8 246.5 L 72.8 272.7 L 69.2 272.7 L 69.2 260.6 L 55.8 260.6 L 55.8 272.7 L 52.2 272.7 L 52.2 246.5 " fill="#000000"/>
<path class="atom-3" d="M 25.0 163.5 L 28.6 163.5 L 28.6 174.6 L 42.0 174.6 L 42.0 163.5 L 45.5 163.5 L 45.5 189.7 L 42.0 189.7 L 42.0 177.6 L 28.6 177.6 L 28.6 189.7 L 25.0 189.7 L 25.0 163.5 " fill="#000000"/>
<path class="atom-5" d="M 126.3 109.6 Q 126.3 103.3, 129.4 99.8 Q 132.6 96.3, 138.4 96.3 Q 144.2 96.3, 147.3 99.8 Q 150.4 103.3, 150.4 109.6 Q 150.4 116.0, 147.3 119.6 Q 144.1 123.2, 138.4 123.2 Q 132.6 123.2, 129.4 119.6 Q 126.3 116.0, 126.3 109.6 M 138.4 120.3 Q 142.4 120.3, 144.5 117.6 Q 146.7 114.9, 146.7 109.6 Q 146.7 104.5, 144.5 101.9 Q 142.4 99.2, 138.4 99.2 Q 134.4 99.2, 132.2 101.8 Q 130.0 104.4, 130.0 109.6 Q 130.0 114.9, 132.2 117.6 Q 134.4 120.3, 138.4 120.3 " fill="#FF0000"/>
<path class="atom-6" d="M 190.7 186.2 L 199.3 200.1 Q 200.2 201.4, 201.5 203.9 Q 202.9 206.4, 203.0 206.6 L 203.0 186.2 L 206.5 186.2 L 206.5 212.4 L 202.9 212.4 L 193.7 197.2 Q 192.6 195.4, 191.4 193.4 Q 190.3 191.4, 190.0 190.7 L 190.0 212.4 L 186.6 212.4 L 186.6 186.2 L 190.7 186.2 " fill="#0000FF"/>
<path class="atom-7" d="M 189.7 247.8 L 193.2 247.8 L 193.2 259.0 L 206.7 259.0 L 206.7 247.8 L 210.2 247.8 L 210.2 274.0 L 206.7 274.0 L 206.7 261.9 L 193.2 261.9 L 193.2 274.0 L 189.7 274.0 L 189.7 247.8 " fill="#000000"/>
<path class="atom-9" d="M 199.0 105.8 L 202.5 105.8 L 202.5 117.0 L 215.9 117.0 L 215.9 105.8 L 219.5 105.8 L 219.5 132.1 L 215.9 132.1 L 215.9 119.9 L 202.5 119.9 L 202.5 132.1 L 199.0 132.1 L 199.0 105.8 " fill="#000000"/>
<path class="atom-11" d="M 212.1 56.4 L 215.7 56.4 L 215.7 67.6 L 229.1 67.6 L 229.1 56.4 L 232.7 56.4 L 232.7 82.6 L 229.1 82.6 L 229.1 70.5 L 215.7 70.5 L 215.7 82.6 L 212.1 82.6 L 212.1 56.4 " fill="#000000"/>
<path class="atom-12" d="M 261.7 25.5 L 265.2 25.5 L 265.2 36.6 L 278.6 36.6 L 278.6 25.5 L 282.2 25.5 L 282.2 51.7 L 278.6 51.7 L 278.6 39.6 L 265.2 39.6 L 265.2 51.7 L 261.7 51.7 L 261.7 25.5 " fill="#000000"/>
<path class="atom-13" d="M 318.9 79.9 L 322.5 79.9 L 322.5 91.1 L 335.9 91.1 L 335.9 79.9 L 339.5 79.9 L 339.5 106.1 L 335.9 106.1 L 335.9 94.0 L 322.5 94.0 L 322.5 106.1 L 318.9 106.1 L 318.9 79.9 " fill="#000000"/>
<path class="atom-15" d="M 294.7 260.9 Q 294.7 254.6, 297.8 251.1 Q 300.9 247.6, 306.7 247.6 Q 312.5 247.6, 315.6 251.1 Q 318.8 254.6, 318.8 260.9 Q 318.8 267.3, 315.6 270.9 Q 312.5 274.5, 306.7 274.5 Q 300.9 274.5, 297.8 270.9 Q 294.7 267.3, 294.7 260.9 M 306.7 271.6 Q 310.7 271.6, 312.9 268.9 Q 315.0 266.2, 315.0 260.9 Q 315.0 255.8, 312.9 253.2 Q 310.7 250.5, 306.7 250.5 Q 302.7 250.5, 300.5 253.1 Q 298.4 255.7, 298.4 260.9 Q 298.4 266.2, 300.5 268.9 Q 302.7 271.6, 306.7 271.6 " fill="#FF0000"/>
<path class="atom-16" d="M 358.2 158.3 L 366.8 172.2 Q 367.7 173.6, 369.1 176.1 Q 370.4 178.5, 370.5 178.7 L 370.5 158.3 L 374.0 158.3 L 374.0 184.5 L 370.4 184.5 L 361.2 169.4 Q 360.1 167.6, 359.0 165.5 Q 357.8 163.5, 357.5 162.9 L 357.5 184.5 L 354.1 184.5 L 354.1 158.3 L 358.2 158.3 " fill="#0000FF"/>
<path class="atom-17" d="M 356.2 112.4 L 359.8 112.4 L 359.8 123.5 L 373.2 123.5 L 373.2 112.4 L 376.7 112.4 L 376.7 138.6 L 373.2 138.6 L 373.2 126.5 L 359.8 126.5 L 359.8 138.6 L 356.2 138.6 L 356.2 112.4 " fill="#000000"/>
<path class="atom-19" d="M 379.0 237.0 L 382.6 237.0 L 382.6 248.2 L 396.0 248.2 L 396.0 237.0 L 399.6 237.0 L 399.6 263.3 L 396.0 263.3 L 396.0 251.2 L 382.6 251.2 L 382.6 263.3 L 379.0 263.3 L 379.0 237.0 " fill="#000000"/>
<path class="atom-20" d="M 440.4 230.7 L 443.9 230.7 L 443.9 241.8 L 457.3 241.8 L 457.3 230.7 L 460.9 230.7 L 460.9 256.9 L 457.3 256.9 L 457.3 244.8 L 443.9 244.8 L 443.9 256.9 L 440.4 256.9 L 440.4 230.7 " fill="#000000"/>
<path class="atom-21" d="M 454.5 144.7 L 458.0 144.7 L 458.0 155.9 L 471.4 155.9 L 471.4 144.7 L 475.0 144.7 L 475.0 170.9 L 471.4 170.9 L 471.4 158.8 L 458.0 158.8 L 458.0 170.9 L 454.5 170.9 L 454.5 144.7 " fill="#000000"/>
</svg>